<svg id="booking" xmlns="http://www.w3.org/2000/svg" width="23.262" height="23.262" viewBox="0 0 23.262 23.262">
  <path id="Path_50429" data-name="Path 50429" d="M238.865,367.4h1.557v1.557h-1.557Z" transform="translate(-228.012 -350.707)" fill="#30302f"/>
  <path id="Path_50430" data-name="Path 50430" d="M375.434,367.4h1.557v1.557h-1.557Z" transform="translate(-358.376 -350.707)" fill="#30302f"/>
  <path id="Path_50431" data-name="Path 50431" d="M102.3,238.867h1.557v1.557H102.3Z" transform="translate(-97.651 -228.014)" fill="#30302f"/>
  <path id="Path_50432" data-name="Path 50432" d="M102.3,367.4h1.557v1.557H102.3Z" transform="translate(-97.651 -350.707)" fill="#30302f"/>
  <path id="Path_50433" data-name="Path 50433" d="M20.756,1.46h-.51V3.6a.682.682,0,1,1-1.363,0V.682a.682.682,0,0,0-1.363,0V1.46H15.866V3.6a.682.682,0,0,1-1.363,0V.682a.682.682,0,1,0-1.363,0V1.46H11.486V3.6a.682.682,0,0,1-1.363,0V.682a.682.682,0,1,0-1.363,0V1.46H7.106V3.6a.682.682,0,1,1-1.363,0V.682a.682.682,0,1,0-1.363,0V1.46H2.506A2.509,2.509,0,0,0,0,3.966V5.84H23.262V3.966A2.509,2.509,0,0,0,20.756,1.46Z" transform="translate(0)" fill="#30302f"/>
  <path id="Path_50434" data-name="Path 50434" d="M0,172.086a2.509,2.509,0,0,0,2.506,2.506H20.756a2.509,2.509,0,0,0,2.507-2.506V158.533H0Zm13.773-1.825a.682.682,0,0,1-.682.682h-2.92a.682.682,0,0,1-.682-.682v-2.92a.682.682,0,0,1,.682-.682h2.92a.682.682,0,0,1,.682.682Zm1.922-8.76a.682.682,0,0,1,.682-.682H19.3a.682.682,0,0,1,.682.682v2.92a.682.682,0,0,1-.682.682h-2.92a.682.682,0,0,1-.682-.682Zm0,5.84a.682.682,0,0,1,.682-.682H19.3a.682.682,0,0,1,.682.682v2.92a.682.682,0,0,1-.682.682h-2.92a.682.682,0,0,1-.682-.682ZM9.6,162.48a.682.682,0,0,1,.964,0l.55.55,1.583-1.583a.682.682,0,0,1,.964.964L11.6,164.476a.681.681,0,0,1-.964,0L9.6,163.443A.681.681,0,0,1,9.6,162.48ZM3.285,161.5a.682.682,0,0,1,.682-.682h2.92a.682.682,0,0,1,.682.682v2.92a.682.682,0,0,1-.682.682H3.966a.682.682,0,0,1-.682-.682Zm0,5.84a.682.682,0,0,1,.682-.682h2.92a.682.682,0,0,1,.682.682v2.92a.682.682,0,0,1-.682.682H3.966a.682.682,0,0,1-.682-.682Z" transform="translate(0 -151.33)" fill="#30302f"/>
  <path id="Path_50435" data-name="Path 50435" d="M375.434,238.867h1.557v1.557h-1.557Z" transform="translate(-358.376 -228.014)" fill="#30302f"/>
</svg>
