<svg id="cctv" xmlns="http://www.w3.org/2000/svg" width="24.367" height="20.858" viewBox="0 0 24.367 20.858">
  <g id="Group_3210" data-name="Group 3210" transform="translate(2.15)">
    <g id="Group_3209" data-name="Group 3209">
      <path id="Path_50438" data-name="Path 50438" d="M48.693,36.9a.747.747,0,0,0-.936.492l-2.544,8.187a.747.747,0,0,0,.492.936l13.2,4.1L67.355,42.7Z" transform="translate(-45.18 -36.868)" fill="#c3c3c3"/>
    </g>
  </g>
  <g id="Group_3212" data-name="Group 3212" transform="translate(18.648 8.591)">
    <g id="Group_3211" data-name="Group 3211">
      <path id="Path_50439" data-name="Path 50439" d="M397.018,217.457l-.273-.085-4.921,4.609,3.454,1.073a.747.747,0,0,0,.936-.492l1.3-4.17A.748.748,0,0,0,397.018,217.457Z" transform="translate(-391.825 -217.372)" fill="#c3c3c3"/>
    </g>
  </g>
  <g id="Group_3214" data-name="Group 3214" transform="translate(8.113 12.967)">
    <g id="Group_3213" data-name="Group 3213">
      <path id="Path_50440" data-name="Path 50440" d="M170.678,309.335l-.171.549a.747.747,0,0,0,.492.936l4.274,1.328a.747.747,0,0,0,.936-.492l.171-.549Z" transform="translate(-170.473 -309.335)" fill="#c3c3c3"/>
    </g>
  </g>
  <g id="Group_3216" data-name="Group 3216" transform="translate(0 13.809)">
    <g id="Group_3215" data-name="Group 3215" transform="translate(0 0)">
      <path id="Path_50441" data-name="Path 50441" d="M9.723,329.561l-.053.191H4.338a3.044,3.044,0,0,0-3.025-2.737H.747a.747.747,0,0,0-.747.747v5.554a.748.748,0,0,0,.747.747h.565a3.043,3.043,0,0,0,3.031-2.817h5.895a.748.748,0,0,0,.72-.547l.193-.695Z" transform="translate(0 -327.015)" fill="#c3c3c3"/>
    </g>
  </g>
</svg>
