<svg id="dashboard" xmlns="http://www.w3.org/2000/svg" width="25.11" height="25.11" viewBox="0 0 25.11 25.11">
  <path id="Path_50444" data-name="Path 50444" d="M9.678,0H1.831A1.833,1.833,0,0,0,0,1.831V6.539A1.833,1.833,0,0,0,1.831,8.37H9.678a1.833,1.833,0,0,0,1.831-1.831V1.831A1.833,1.833,0,0,0,9.678,0Zm0,0" fill="#c3c3c3"/>
  <path id="Path_50445" data-name="Path 50445" d="M9.678,213.332H1.831A1.833,1.833,0,0,0,0,215.163v10.986a1.833,1.833,0,0,0,1.831,1.831H9.678a1.833,1.833,0,0,0,1.831-1.831V215.163A1.833,1.833,0,0,0,9.678,213.332Zm0,0" transform="translate(0 -202.87)" fill="#c3c3c3"/>
  <path id="Path_50446" data-name="Path 50446" d="M287.01,341.332h-7.847a1.833,1.833,0,0,0-1.831,1.831v4.708a1.833,1.833,0,0,0,1.831,1.831h7.847a1.833,1.833,0,0,0,1.831-1.831v-4.708A1.833,1.833,0,0,0,287.01,341.332Zm0,0" transform="translate(-263.731 -324.592)" fill="#c3c3c3"/>
  <path id="Path_50447" data-name="Path 50447" d="M287.01,0h-7.847a1.833,1.833,0,0,0-1.831,1.831V12.816a1.833,1.833,0,0,0,1.831,1.831h7.847a1.833,1.833,0,0,0,1.831-1.831V1.831A1.833,1.833,0,0,0,287.01,0Zm0,0" transform="translate(-263.731)" fill="#c3c3c3"/>
</svg>

