<svg xmlns="http://www.w3.org/2000/svg" width="24.731" height="23.002" viewBox="0 0 24.731 23.002">
  <g id="email" transform="translate(0 -57.088)">
    <g id="Group_3220" data-name="Group 3220" transform="translate(0 63.576)">
      <g id="Group_3219" data-name="Group 3219" transform="translate(0 0)">
        <path id="Path_50450" data-name="Path 50450" d="M13.081,156.158a1.162,1.162,0,0,1-1.46,0L0,147.2v11.907c0,2.544,1.635,4.608,3.65,4.608H21.081c2.015,0,3.65-2.064,3.65-4.608V147.2Z" transform="translate(0 -147.2)" fill="#c3c3c3"/>
      </g>
    </g>
    <g id="Group_3222" data-name="Group 3222" transform="translate(0.147 57.088)">
      <g id="Group_3221" data-name="Group 3221" transform="translate(0 0)">
        <path id="Path_50451" data-name="Path 50451" d="M22.96,57.088H5.572c-1.718,0-3.175,1.548-3.524,3.613l12.233,9.437,12.2-9.437C26.134,58.636,24.678,57.088,22.96,57.088Z" transform="translate(-2.048 -57.088)" fill="#c3c3c3"/>
      </g>
    </g>
  </g>
</svg>
