<svg id="like" xmlns="http://www.w3.org/2000/svg" width="24.367" height="21.888" viewBox="0 0 24.367 21.888">
  <path id="Path_50442" data-name="Path 50442" d="M20.024,26.042H4.343A4.348,4.348,0,0,0,0,30.385v8.523a4.348,4.348,0,0,0,4.343,4.343h3.9l3.37,4.4a.714.714,0,0,0,1.134,0l3.37-4.4h3.9a4.348,4.348,0,0,0,4.343-4.343V30.385a4.348,4.348,0,0,0-4.343-4.343Zm-2.84,9.664-4.5,4.5a.714.714,0,0,1-1.009,0l-4.5-4.5a3.44,3.44,0,1,1,4.864-4.864l.136.136.136-.136a3.439,3.439,0,1,1,4.864,4.864Z" transform="translate(0 -26.042)" fill="#c3c3c3"/>
  <path id="Path_50443" data-name="Path 50443" d="M168.327,139.157l-3.991,3.991-3.991-3.991a2.012,2.012,0,0,1,2.846-2.846l.641.641a.714.714,0,0,0,1.009,0l.641-.641a2.012,2.012,0,1,1,2.846,2.845Z" transform="translate(-152.152 -130.502)" fill="#c3c3c3"/>
</svg>
