<svg id="statistics" xmlns="http://www.w3.org/2000/svg" width="24.367" height="24.367" viewBox="0 0 24.367 24.367">
  <path id="Path_50436" data-name="Path 50436" d="M33.142,11.422a2.131,2.131,0,0,0,1.482-.6l2.113,1.057a2.1,2.1,0,0,0-.026.26,2.142,2.142,0,1,0,4.283,0,2.116,2.116,0,0,0-.215-.917l2.867-2.867a2.116,2.116,0,0,0,.917.215,2.144,2.144,0,0,0,2.142-2.142,2.11,2.11,0,0,0-.107-.634l2.491-1.868a2.14,2.14,0,1,0-.956-1.781,2.11,2.11,0,0,0,.107.634L45.749,4.644a2.132,2.132,0,0,0-3.112,2.7L39.77,10.209a2.1,2.1,0,0,0-2.4.387L35.257,9.54a2.1,2.1,0,0,0,.026-.26,2.142,2.142,0,1,0-2.142,2.142Zm0,0" transform="translate(-29.525)" fill="#c3c3c3"/>
  <path id="Path_50437" data-name="Path 50437" d="M23.653,165.8h-.761V150.714a.714.714,0,0,0-.714-.714H19.322a.714.714,0,0,0-.714.714V165.8H17.181V155a.714.714,0,0,0-.714-.714H13.611A.714.714,0,0,0,12.9,155v10.8H11.47v-5.092a.714.714,0,0,0-.714-.714H7.9a.714.714,0,0,0-.714.714V165.8H5.759v-7.948a.714.714,0,0,0-.714-.714H2.189a.714.714,0,0,0-.714.714V165.8H.714a.714.714,0,0,0,0,1.428H23.653a.714.714,0,0,0,0-1.428Zm0,0" transform="translate(0 -142.861)" fill="#c3c3c3"/>
</svg>

