<svg id="network_2_" data-name="network (2)" xmlns="http://www.w3.org/2000/svg" width="23.058" height="23.058" viewBox="0 0 23.058 23.058">
  <g id="Group_6586" data-name="Group 6586">
    <path id="Path_50493" data-name="Path 50493" d="M21.9,13.835H15.333l-2.652-1.729v-.576h4.612a1.089,1.089,0,0,0,1.153-1.153V1.153A1.089,1.089,0,0,0,17.293,0H5.764A1.089,1.089,0,0,0,4.612,1.153v9.223a1.089,1.089,0,0,0,1.153,1.153h4.612v.576L7.724,13.835H1.153A1.089,1.089,0,0,0,0,14.987V21.9a1.089,1.089,0,0,0,1.153,1.153H8.07A1.089,1.089,0,0,0,9.223,21.9V15.564l2.306-1.5,2.306,1.5V21.9a1.089,1.089,0,0,0,1.153,1.153H21.9A1.089,1.089,0,0,0,23.058,21.9V14.987A1.089,1.089,0,0,0,21.9,13.835Z" fill="#c3c3c3"/>
  </g>
</svg>
