<svg id="teamwork" xmlns="http://www.w3.org/2000/svg" width="25.367" height="25.367" viewBox="0 0 25.367 25.367">
  <path id="Path_50420" data-name="Path 50420" d="M45.425,2.76a2.76,2.76,0,1,0-2.76,2.76A2.763,2.763,0,0,0,45.425,2.76Z" transform="translate(-37.943 0)" fill="#c3c3c3"/>
  <path id="Path_50421" data-name="Path 50421" d="M9.447,117.44v-.849a4.723,4.723,0,0,0-9.447,0v.849a.743.743,0,0,0,.743.743H8.7A.743.743,0,0,0,9.447,117.44Z" transform="translate(0 -106.348)" fill="#c3c3c3"/>
  <path id="Path_50422" data-name="Path 50422" d="M366.759,2.76A2.76,2.76,0,1,0,364,5.519,2.763,2.763,0,0,0,366.759,2.76Z" transform="translate(-343.356 0)" fill="#c3c3c3"/>
  <path id="Path_50423" data-name="Path 50423" d="M326.057,111.4a4.729,4.729,0,0,0-4.723,4.723v.849a.743.743,0,0,0,.743.743h7.96a.743.743,0,0,0,.743-.743v-.849A4.729,4.729,0,0,0,326.057,111.4Z" transform="translate(-305.413 -105.881)" fill="#c3c3c3"/>
  <path id="Path_50424" data-name="Path 50424" d="M65.76,269.026c0-.053,0-.106,0-.159H64.276a9.489,9.489,0,0,0,3.877,7.817,6.225,6.225,0,0,1,.793-1.263A8,8,0,0,1,65.76,269.026Z" transform="translate(-61.089 -255.546)" fill="#c3c3c3"/>
  <path id="Path_50425" data-name="Path 50425" d="M166.761,82.724a8.094,8.094,0,0,1,6.559,0,6.259,6.259,0,0,1,1.2-1.065,9.592,9.592,0,0,0-8.962,0A6.263,6.263,0,0,1,166.761,82.724Z" transform="translate(-157.357 -76.557)" fill="#c3c3c3"/>
  <path id="Path_50426" data-name="Path 50426" d="M356.632,268.867a8,8,0,0,1-3.183,6.554,6.225,6.225,0,0,1,.793,1.263,9.489,9.489,0,0,0,3.877-7.817Z" transform="translate(-335.937 -255.546)" fill="#c3c3c3"/>
  <path id="Path_50427" data-name="Path 50427" d="M206.092,275.893a2.76,2.76,0,1,0-2.76,2.76A2.763,2.763,0,0,0,206.092,275.893Z" transform="translate(-190.649 -259.601)" fill="#c3c3c3"/>
  <path id="Path_50428" data-name="Path 50428" d="M165.39,384.533a4.729,4.729,0,0,0-4.723,4.723v.849a.743.743,0,0,0,.743.743h7.96a.743.743,0,0,0,.743-.743v-.849A4.729,4.729,0,0,0,165.39,384.533Z" transform="translate(-152.707 -365.481)" fill="#c3c3c3"/>
</svg>
