<svg xmlns="http://www.w3.org/2000/svg" width="25.367" height="25.368" viewBox="0 0 25.367 25.368">
  <path id="dumbell" d="M12.817,20.042a2.028,2.028,0,0,1,0,2.87l-1.79,1.79a2.031,2.031,0,0,1-2.87,0L.669,17.213a2.032,2.032,0,0,1,0-2.87l1.79-1.79a2.028,2.028,0,0,1,2.87,0ZM.971,19.163a.407.407,0,0,0-.629.068A2.013,2.013,0,0,0,.6,21.775l3,3a2.012,2.012,0,0,0,2.544.255.407.407,0,0,0,.068-.629Zm13.077-10.6a.813.813,0,0,0-1.148,0L8.562,12.9a.812.812,0,0,0,0,1.148l2.763,2.763a.813.813,0,0,0,1.148,0l4.338-4.338a.812.812,0,0,0,0-1.148ZM24.4,6.2a.407.407,0,0,0,.629-.068,2.013,2.013,0,0,0-.256-2.543l-3-3A2.013,2.013,0,0,0,19.235.337a.407.407,0,0,0-.068.629ZM17.216.666a2.032,2.032,0,0,0-2.87,0l-1.79,1.79a2.028,2.028,0,0,0,0,2.87l7.489,7.489a2.028,2.028,0,0,0,2.87,0l1.79-1.79a2.032,2.032,0,0,0,0-2.87Z" transform="translate(-0.003 0)" fill="#30302f"/>
</svg>
