<svg xmlns="http://www.w3.org/2000/svg" width="119.146" height="127.055" viewBox="0 0 119.146 127.055">
  <g id="forgot" transform="translate(-15.937)">
    <g id="Group_6466" data-name="Group 6466" transform="translate(15.937)">
      <g id="Group_6465" data-name="Group 6465" transform="translate(0)">
        <circle id="Ellipse_278" data-name="Ellipse 278" cx="5" cy="5" r="5" transform="translate(60 81)"/>
        <path id="Path_47391" data-name="Path 47391" d="M97.58,117.129H35.789a9.937,9.937,0,0,1-9.926-9.926v-40.7a9.937,9.937,0,0,1,9.926-9.926h71.469a10.1,10.1,0,0,1,2.741.3,4.963,4.963,0,0,0,2.734-9.542,19.722,19.722,0,0,0-5.475-.688h-5.965V29.15C101.293,13.077,87.934,0,71.515,0S41.736,13.077,41.736,29.15v17.5H35.789A19.875,19.875,0,0,0,15.937,66.506v40.7a19.875,19.875,0,0,0,19.852,19.852H97.58a4.963,4.963,0,0,0,0-9.926ZM51.662,29.15c0-10.6,8.906-19.224,19.852-19.224S91.367,18.55,91.367,29.15v17.5h-39.7Z" transform="translate(-15.937)"/>
        <circle id="Ellipse_279" data-name="Ellipse 279" cx="5" cy="5" r="5" transform="translate(41 81)"/>
        <path id="Path_47392" data-name="Path 47392" d="M389.249,278.423a17.625,17.625,0,0,0-35.249.2,4.963,4.963,0,1,0,9.926,0,7.7,7.7,0,0,1,15.4,0c0,.045,0,.09,0,.135a7.7,7.7,0,0,1-4.681,6.957,13.2,13.2,0,0,0-7.983,12.185v4.292a4.963,4.963,0,1,0,9.926,0V297.9a3.288,3.288,0,0,1,1.954-3.056,17.609,17.609,0,0,0,10.711-16.222Q389.254,278.523,389.249,278.423Z" transform="translate(-270.108 -196.232)"/>
        <ellipse id="Ellipse_280" data-name="Ellipse 280" cx="4.5" cy="5" rx="4.5" ry="5" transform="translate(97 117)"/>
        <circle id="Ellipse_281" data-name="Ellipse 281" cx="5" cy="5" r="5" transform="translate(23 81)"/>
      </g>
    </g>
  </g>
</svg>
