<svg xmlns="http://www.w3.org/2000/svg" xmlns:xlink="http://www.w3.org/1999/xlink" width="74.718" height="40.017" viewBox="0 0 74.718 40.017">
  <defs>
    <linearGradient id="linear-gradient" y1="0.5" x2="1" y2="0.5" gradientUnits="objectBoundingBox">
      <stop offset="0" stop-color="#222312"/>
      <stop offset="1" stop-color="#1b1c12"/>
    </linearGradient>
    <linearGradient id="linear-gradient-2" y1="0.5" x2="1" y2="0.5" gradientUnits="objectBoundingBox">
      <stop offset="0" stop-color="#b6cb1c"/>
      <stop offset="1" stop-color="#97a427"/>
    </linearGradient>
  </defs>
  <g id="Group_3217" data-name="Group 3217" transform="translate(-251.07 -1027.12)">
    <g id="Group_1" data-name="Group 1" transform="translate(251.07 1027.12)">
      <path id="Path_1" data-name="Path 1" d="M268.305,1955.642a2.2,2.2,0,0,0,.311.05,4.138,4.138,0,0,1-2.3-1.575c-.8-.948-1.606-1.893-2.379-2.863a1.434,1.434,0,0,0-1.246-.587c-3.636.019-7.273.008-10.909.006h-.711c.075.337.274.364.423.436a37.838,37.838,0,0,1,10.048,7.342c1.664,1.631,3.205,3.374,4.736,5.127.7.8.708.781,1.506.109q4.217-3.553,8.442-7.1C273.587,1958.466,268.305,1955.642,268.305,1955.642Z" transform="translate(-251.07 -1935.139)" fill="#b6cb1c"/>
      <path id="Path_2" data-name="Path 2" d="M1304.513,1027.745q-.247.154-.488.316l0,0-2.1,1.473c-2.489,1.76-4.972,3.53-7.466,5.285l-.74.525-.237.161c-2.8,1.964-5.615,3.906-8.47,5.792l-.705.466a77.858,77.858,0,0,1-8.38,5.051q-.389.192-.783.376a4.191,4.191,0,0,1-2.59.479h0a3.251,3.251,0,0,1-.378-.1s4.454,3.883,7.987.993c.058-.048.122-.09.18-.139.582-.487,2.2-1.847,4.355-3.66l.01-.008c7.266-6.113,20.614-17.355,20.95-17.638l0,0,0,0Z" transform="translate(-1255.006 -1027.12)" fill="#97a427"/>
    </g>
    <path id="Path_3" data-name="Path 3" d="M712.218,1044.531a3.586,3.586,0,0,0-.59.311l-43.276,39.105h14.28c-.507-.39-.947-.69-1.344-1.039a2.5,2.5,0,0,1-.634-3.134,5.844,5.844,0,0,1,1.852-2.228,2.223,2.223,0,0,1,3.388.391q2.413,2.833,4.759,5.722a1.523,1.523,0,0,0,.928.6C681.041,1070.765,711.6,1045.237,712.218,1044.531Z" transform="translate(-410.267 -17.118)" fill="url(#linear-gradient)"/>
    <path id="Path_4" data-name="Path 4" d="M1943,2683.672s-3.388,6.917,1.155,12.144l.008.01,11.7-.019c.339,0,.022-.166-.042-.2l0,0c-.045-.023-.088-.047-.131-.072-.071-.041-.142-.081-.216-.117,0,0-12.71-6.105-12.479-11.554C1942.99,2683.8,1942.994,2683.734,1943,2683.672Z" transform="translate(-1662.289 -1628.7)" fill="#272316"/>
    <path id="Path_5" data-name="Path 5" d="M2474.119,2266.35v-13.039h5.842a17.517,17.517,0,0,1,1.773.061,3.289,3.289,0,0,1,.97.262q1.618.735,1.618,3.742a5.508,5.508,0,0,1-.446,2.495,2.634,2.634,0,0,1-1.782,1.37,16.045,16.045,0,0,1-2.362.123h-3.843v4.987Zm1.77-6.567h3.568a7.859,7.859,0,0,0,2.208-.2,1.267,1.267,0,0,0,.792-.936,4.458,4.458,0,0,0,.1-1.07,7.2,7.2,0,0,0-.167-1.883,1.068,1.068,0,0,0-.869-.725,11,11,0,0,0-1.6-.078h-4.022Z" transform="translate(-2185.672 -1205.575)" fill="#30302f"/>
    <path id="Path_6" data-name="Path 6" d="M3190.83,2241.9c2.941-.022,5.066.189,5.5,3.627a20.44,20.44,0,0,1,.1,2.433c-.059,2.931.147,4.114-.676,5.77-1.054,1.686-3.136,1.56-5.092,1.59-2.54-.027-4.618.09-5.43-2.457a18.782,18.782,0,0,1-.319-4.837,21.938,21.938,0,0,1,.1-2.513C3185.474,2241.883,3187.822,2241.885,3190.83,2241.9Z" transform="translate(-2884.512 -1194.352)" fill="#30302f"/>
    <path id="Path_7" data-name="Path 7" d="M3293.756,2339.353q-1.285,0-1.832.05a1.722,1.722,0,0,0-1.82,1.443,19.893,19.893,0,0,0-.152,3.577q0,2.362.038,2.808a4.032,4.032,0,0,0,.318,1.36c.4.738,1.035.81,1.949.869.81.056,3.017.049,3.663-.012a3.324,3.324,0,0,0,.949-.2c.956-.4,1.045-1.764,1.057-2.808v-2.017q0-2.363-.038-2.808a4.014,4.014,0,0,0-.318-1.365c-.409-.744-1.054-.8-1.983-.864Q3294.906,2339.353,3293.756,2339.353Z" transform="translate(-2987.783 -1290.17)" fill="url(#linear-gradient-2)"/>
    <path id="Path_8" data-name="Path 8" d="M4027.042,2266.35v-13.039h6.391a8.758,8.758,0,0,1,2.119.223,3.1,3.1,0,0,1,2.063,1.662,9.155,9.155,0,0,1,.658,4.047q0,2.308-.1,3.211a3.972,3.972,0,0,1-1.908,3.378,6.134,6.134,0,0,1-1.886.479,5.168,5.168,0,0,1-.58.038Zm1.771-1.58h4.318q2.065,0,2.678-.736a3.75,3.75,0,0,0,.636-2.063q.057-.658.057-1.885a28.367,28.367,0,0,0-.114-3.1,2.076,2.076,0,0,0-1.305-1.884,5.2,5.2,0,0,0-1.663-.212h-4.608Z" transform="translate(-3712.485 -1205.575)" fill="#30302f"/>
  </g>
</svg>
