<svg id="Line" xmlns="http://www.w3.org/2000/svg" width="19.252" height="22.307" viewBox="0 0 19.252 22.307">
  <path id="Path_50448" data-name="Path 50448" d="M14.644,2a7.516,7.516,0,0,0-7.6,7.423v5.79L5.356,17.688a1.978,1.978,0,0,0-.086,2.055,2.076,2.076,0,0,0,1.8,1.062H22.213A2.076,2.076,0,0,0,24.03,19.74a1.978,1.978,0,0,0-.1-2.067l-1.683-2.46V9.423A7.516,7.516,0,0,0,14.644,2Z" transform="translate(-5.023 -2)" fill="#c3c3c3"/>
  <path id="Path_50449" data-name="Path 50449" d="M21.647,44.334A3.5,3.5,0,0,0,24.945,42H18.35A3.5,3.5,0,0,0,21.647,44.334Z" transform="translate(-12.026 -22.027)" fill="#c3c3c3"/>
</svg>
