<svg id="qr-code_1_" data-name="qr-code (1)" xmlns="http://www.w3.org/2000/svg" width="129.924" height="129.924" viewBox="0 0 129.924 129.924">
  <g id="Group_6506" data-name="Group 6506" transform="translate(12.992 12.992)">
    <g id="Group_6505" data-name="Group 6505">
      <rect id="Rectangle_2070" data-name="Rectangle 2070" width="12.992" height="12.992"/>
    </g>
  </g>
  <g id="Group_6508" data-name="Group 6508" transform="translate(84.45)">
    <g id="Group_6507" data-name="Group 6507">
      <path id="Path_50471" data-name="Path 50471" d="M339.3,0V6.5h-6.5v6.5h6.5V38.977h6.5v6.5h-6.5v6.5h12.992V38.977h19.489v6.5h6.5V0Zm32.481,32.481H345.792V6.5h25.985Z" transform="translate(-332.8)"/>
    </g>
  </g>
  <g id="Group_6510" data-name="Group 6510" transform="translate(103.939 12.992)">
    <g id="Group_6509" data-name="Group 6509">
      <rect id="Rectangle_2071" data-name="Rectangle 2071" width="12.992" height="12.992"/>
    </g>
  </g>
  <g id="Group_6512" data-name="Group 6512" transform="translate(12.992 103.939)">
    <g id="Group_6511" data-name="Group 6511">
      <rect id="Rectangle_2072" data-name="Rectangle 2072" width="12.992" height="12.992"/>
    </g>
  </g>
  <g id="Group_6514" data-name="Group 6514" transform="translate(90.947 90.947)">
    <g id="Group_6513" data-name="Group 6513">
      <rect id="Rectangle_2073" data-name="Rectangle 2073" width="6.496" height="6.496"/>
    </g>
  </g>
  <g id="Group_6516" data-name="Group 6516" transform="translate(58.466 123.428)">
    <g id="Group_6515" data-name="Group 6515">
      <rect id="Rectangle_2074" data-name="Rectangle 2074" width="6.496" height="6.496"/>
    </g>
  </g>
  <g id="Group_6518" data-name="Group 6518" transform="translate(64.962 97.443)">
    <g id="Group_6517" data-name="Group 6517">
      <rect id="Rectangle_2075" data-name="Rectangle 2075" width="6.496" height="6.496"/>
    </g>
  </g>
  <g id="Group_6520" data-name="Group 6520" transform="translate(64.962 110.435)">
    <g id="Group_6519" data-name="Group 6519">
      <rect id="Rectangle_2076" data-name="Rectangle 2076" width="6.496" height="6.496"/>
    </g>
  </g>
  <g id="Group_6522" data-name="Group 6522" transform="translate(123.428 77.954)">
    <g id="Group_6521" data-name="Group 6521">
      <rect id="Rectangle_2077" data-name="Rectangle 2077" width="6.496" height="6.496"/>
    </g>
  </g>
  <g id="Group_6524" data-name="Group 6524" transform="translate(0 77.954)">
    <g id="Group_6523" data-name="Group 6523">
      <rect id="Rectangle_2078" data-name="Rectangle 2078" width="6.496" height="6.496"/>
    </g>
  </g>
  <g id="Group_6526" data-name="Group 6526" transform="translate(0 45.473)">
    <g id="Group_6525" data-name="Group 6525">
      <rect id="Rectangle_2079" data-name="Rectangle 2079" width="6.496" height="6.496"/>
    </g>
  </g>
  <g id="Group_6528" data-name="Group 6528" transform="translate(58.466 6.496)">
    <g id="Group_6527" data-name="Group 6527">
      <path id="Path_50472" data-name="Path 50472" d="M243.392,25.6v6.5H230.4v6.5h19.489V25.6Z" transform="translate(-230.4 -25.6)"/>
    </g>
  </g>
  <g id="Group_6530" data-name="Group 6530" transform="translate(45.473 51.97)">
    <g id="Group_6529" data-name="Group 6529">
      <path id="Path_50473" data-name="Path 50473" d="M257.154,204.8v6.5H244.162v6.5H224.673v-6.5h-6.5v6.5H205.185v6.5h19.489v6.5H205.185v-6.5h-6.5v6.5h-6.5v-6.5h-6.5v6.5h-6.5v6.5h12.992v6.5h6.5v-6.5h12.992v6.5h-6.5v6.5h6.5v12.992h6.5v6.5h6.5v-6.5h19.489V250.273h6.5v-6.5h-6.5V230.785H231.169v-6.5h12.992v6.5h6.5v-6.5h6.5v-6.5h6.5V204.8Zm-19.489,32.481v19.489H218.177V237.281Z" transform="translate(-179.2 -204.8)"/>
    </g>
  </g>
  <g id="Group_6532" data-name="Group 6532" transform="translate(71.458 38.977)">
    <g id="Group_6531" data-name="Group 6531">
      <path id="Path_50474" data-name="Path 50474" d="M294.592,153.6h-6.5v6.5h-6.5v12.992h6.5v-6.5h6.5v-6.5h6.5v-6.5Z" transform="translate(-281.6 -153.6)"/>
    </g>
  </g>
  <g id="Group_6534" data-name="Group 6534" transform="translate(71.458 123.428)">
    <g id="Group_6533" data-name="Group 6533">
      <rect id="Rectangle_2080" data-name="Rectangle 2080" width="12.992" height="6.496"/>
    </g>
  </g>
  <g id="Group_6536" data-name="Group 6536" transform="translate(51.97 6.496)">
    <g id="Group_6535" data-name="Group 6535">
      <rect id="Rectangle_2081" data-name="Rectangle 2081" width="6.496" height="6.496"/>
    </g>
  </g>
  <g id="Group_6538" data-name="Group 6538" transform="translate(103.939 51.97)">
    <g id="Group_6537" data-name="Group 6537">
      <rect id="Rectangle_2082" data-name="Rectangle 2082" width="6.496" height="6.496"/>
    </g>
  </g>
  <g id="Group_6540" data-name="Group 6540" transform="translate(110.435 45.473)">
    <g id="Group_6539" data-name="Group 6539">
      <rect id="Rectangle_2083" data-name="Rectangle 2083" width="6.496" height="6.496"/>
    </g>
  </g>
  <g id="Group_6542" data-name="Group 6542" transform="translate(25.985 77.954)">
    <g id="Group_6541" data-name="Group 6541">
      <rect id="Rectangle_2084" data-name="Rectangle 2084" width="6.496" height="6.496"/>
    </g>
  </g>
  <g id="Group_6544" data-name="Group 6544" transform="translate(0 84.45)">
    <g id="Group_6543" data-name="Group 6543">
      <path id="Path_50475" data-name="Path 50475" d="M38.977,371.777V345.792h6.5V332.8h-6.5v6.5H19.489v-6.5H6.5v6.5H0v38.977H51.97v-6.5Zm-6.5,0H6.5V345.792H32.481Z" transform="translate(0 -332.8)"/>
    </g>
  </g>
  <g id="Group_6546" data-name="Group 6546" transform="translate(38.977 38.977)">
    <g id="Group_6545" data-name="Group 6545">
      <rect id="Rectangle_2085" data-name="Rectangle 2085" width="6.496" height="6.496"/>
    </g>
  </g>
  <g id="Group_6548" data-name="Group 6548">
    <g id="Group_6547" data-name="Group 6547">
      <path id="Path_50476" data-name="Path 50476" d="M45.473,0H0V38.977H6.5v6.5h6.5v-6.5h6.5v6.5h6.5v-6.5H38.977V25.985h6.5v-6.5h-6.5V6.5H51.97V0ZM32.481,32.481H6.5V6.5H32.481Z"/>
    </g>
  </g>
  <g id="Group_6550" data-name="Group 6550" transform="translate(77.954 19.489)">
    <g id="Group_6549" data-name="Group 6549">
      <rect id="Rectangle_2086" data-name="Rectangle 2086" width="6.496" height="6.496"/>
    </g>
  </g>
  <g id="Group_6552" data-name="Group 6552" transform="translate(64.962)">
    <g id="Group_6551" data-name="Group 6551">
      <rect id="Rectangle_2087" data-name="Rectangle 2087" width="6.496" height="6.496"/>
    </g>
  </g>
  <g id="Group_6554" data-name="Group 6554" transform="translate(0 25.985)">
    <g id="Group_6553" data-name="Group 6553">
      <path id="Path_50477" data-name="Path 50477" d="M77.954,115.392v-6.5h-6.5v-6.5h-6.5v6.5H51.97v-6.5h-6.5v12.992h6.5v12.992H32.481v-6.5h-6.5v6.5H6.5v6.5H19.489v6.5H0v6.5H19.489v6.5h6.5v-6.5h6.5v6.5h6.5v-6.5H51.97v-6.5h-6.5v-6.5H58.466v6.5H71.458v-6.5h-6.5v-6.5h-6.5V115.392H77.954ZM38.977,141.377H25.985v-6.5H38.977Z" transform="translate(0 -102.4)"/>
    </g>
  </g>
  <g id="Group_6556" data-name="Group 6556" transform="translate(45.473 90.947)">
    <g id="Group_6555" data-name="Group 6555">
      <path id="Path_50478" data-name="Path 50478" d="M192.192,371.392V358.4h-6.5v6.5h-6.5v6.5h6.5v6.5h-6.5v6.5h12.992v-6.5h6.5v-6.5Z" transform="translate(-179.2 -358.4)"/>
    </g>
  </g>
  <g id="Group_6558" data-name="Group 6558" transform="translate(90.947 110.435)">
    <g id="Group_6557" data-name="Group 6557">
      <path id="Path_50479" data-name="Path 50479" d="M384.385,441.7v-6.5h-6.5v6.5H358.4v6.5h12.992v6.5h6.5v-6.5h12.992v6.5h6.5V441.7Z" transform="translate(-358.4 -435.2)"/>
    </g>
  </g>
  <g id="Group_6560" data-name="Group 6560" transform="translate(116.931 90.947)">
    <g id="Group_6559" data-name="Group 6559">
      <path id="Path_50480" data-name="Path 50480" d="M467.3,358.4v6.5h-6.5v6.5h12.992V358.4Z" transform="translate(-460.8 -358.4)"/>
    </g>
  </g>
</svg>
