<svg xmlns="http://www.w3.org/2000/svg" width="23.367" height="23.367" viewBox="0 0 23.367 23.367">
  <path id="settings" d="M20.619,11.684a8.73,8.73,0,0,0-.116-1.415l2.864-2.027-2.815-4.8L17.337,4.87a8.961,8.961,0,0,0-2.488-1.416L14.5,0H8.869L8.518,3.454A8.961,8.961,0,0,0,6.03,4.87L2.815,3.442,0,8.242l2.864,2.027a8.719,8.719,0,0,0,0,2.829L0,15.125l2.815,4.8L6.03,18.5a8.961,8.961,0,0,0,2.488,1.416l.351,3.454H14.5l.351-3.454A8.96,8.96,0,0,0,17.337,18.5l3.215,1.429,2.815-4.8L20.5,13.1a8.724,8.724,0,0,0,.116-1.415ZM6.3,13.122l-1.914-1.6.957-1.147.663.553A5.773,5.773,0,0,1,10.69,6.048a5.7,5.7,0,0,1,5.233,1.791l-1.106,1a4.212,4.212,0,0,0-3.868-1.324,4.264,4.264,0,0,0-3.472,3.722l1.02-.629.784,1.272-2.108,1.3a.742.742,0,0,1-.87-.062Zm11.719-.133-.663-.553a5.725,5.725,0,0,1-10.106,2.87l1.156-.946a4.23,4.23,0,0,0,7.481-2.234l-1.02.629-.784-1.272,2.108-1.3a.747.747,0,0,1,.87.062l1.914,1.6Z" transform="translate(0)" fill="#c3c3c3"/>
</svg>
