<svg xmlns="http://www.w3.org/2000/svg" width="22.162" height="25.679" viewBox="0 0 22.162 25.679">
  <g id="Line" transform="translate(-5.023 -2)">
    <path id="Path_50448" data-name="Path 50448" d="M16.1,2a8.754,8.754,0,0,0-8.754,8.754v6.828L5.406,20.5a2.381,2.381,0,0,0,1.978,3.677H24.812a2.381,2.381,0,0,0,1.978-3.694l-1.938-2.9V10.754A8.754,8.754,0,0,0,16.1,2Z" fill="#c3c3c3"/>
    <path id="Path_50449" data-name="Path 50449" d="M21.647,44.334A3.5,3.5,0,0,0,24.945,42H18.35A3.5,3.5,0,0,0,21.647,44.334Z" transform="translate(-5.549 -16.655)" fill="#c3c3c3"/>
  </g>
</svg>
