<svg id="group" xmlns="http://www.w3.org/2000/svg" width="25.367" height="21.518" viewBox="0 0 25.367 21.518">
  <g id="Group_3198" data-name="Group 3198" transform="translate(19.743 11.617)">
    <g id="Group_3197" data-name="Group 3197">
      <path id="Path_50414" data-name="Path 50414" d="M400.456,273.32h-1.962a5.1,5.1,0,0,1,.309,1.754v7.414a2.187,2.187,0,0,1-.126.732h3.243a2.2,2.2,0,0,0,2.2-2.2v-4.042A3.666,3.666,0,0,0,400.456,273.32Z" transform="translate(-398.494 -273.32)" fill="#c3c3c3"/>
    </g>
  </g>
  <g id="Group_3200" data-name="Group 3200" transform="translate(0 11.617)">
    <g id="Group_3199" data-name="Group 3199">
      <path id="Path_50415" data-name="Path 50415" d="M5.314,275.075a5.1,5.1,0,0,1,.309-1.754H3.662A3.666,3.666,0,0,0,0,276.983v4.042a2.2,2.2,0,0,0,2.2,2.2H5.44a2.187,2.187,0,0,1-.126-.732Z" transform="translate(0 -273.321)" fill="#c3c3c3"/>
    </g>
  </g>
  <g id="Group_3202" data-name="Group 3202" transform="translate(6.779 9.71)">
    <g id="Group_3201" data-name="Group 3201" transform="translate(0 0)">
      <path id="Path_50416" data-name="Path 50416" d="M144.976,234.815h-4.485a3.666,3.666,0,0,0-3.662,3.662v7.414a.732.732,0,0,0,.732.732h10.344a.732.732,0,0,0,.732-.732v-7.414A3.666,3.666,0,0,0,144.976,234.815Z" transform="translate(-136.829 -234.815)" fill="#c3c3c3"/>
    </g>
  </g>
  <g id="Group_3204" data-name="Group 3204" transform="translate(8.28 0)">
    <g id="Group_3203" data-name="Group 3203">
      <path id="Path_50417" data-name="Path 50417" d="M171.518,38.84a4.4,4.4,0,1,0,4.4,4.4A4.409,4.409,0,0,0,171.518,38.84Z" transform="translate(-167.114 -38.84)" fill="#c3c3c3"/>
    </g>
  </g>
  <g id="Group_3206" data-name="Group 3206" transform="translate(1.657 4.105)">
    <g id="Group_3205" data-name="Group 3205" transform="translate(0 0)">
      <path id="Path_50418" data-name="Path 50418" d="M36.737,121.689a3.292,3.292,0,1,0,3.294,3.294A3.3,3.3,0,0,0,36.737,121.689Z" transform="translate(-33.443 -121.689)" fill="#c3c3c3"/>
    </g>
  </g>
  <g id="Group_3208" data-name="Group 3208" transform="translate(17.123 4.105)">
    <g id="Group_3207" data-name="Group 3207" transform="translate(0 0)">
      <path id="Path_50419" data-name="Path 50419" d="M348.9,121.689a3.294,3.294,0,1,0,3.294,3.294A3.3,3.3,0,0,0,348.9,121.689Z" transform="translate(-345.607 -121.689)" fill="#c3c3c3"/>
    </g>
  </g>
</svg>
