<svg id="vaccine" xmlns="http://www.w3.org/2000/svg" width="25.511" height="25.511" viewBox="0 0 25.511 25.511">
  <path id="Path_50506" data-name="Path 50506" d="M308.3.219a.747.747,0,0,0-1.057,0l-2,2-.529-.529a.747.747,0,0,0-1.057,0l-1.585,1.585-1.585-1.585a.747.747,0,0,0-1.057,0l-1.585,1.585,7.4,7.4,1.585-1.585a.747.747,0,0,0,0-1.057l-1.585-1.585,1.585-1.585a.747.747,0,0,0,0-1.057l-.528-.529,2-2a.747.747,0,0,0,0-1.057Zm0,0" transform="translate(-283.003)" fill="#c3c3c3"/>
  <path id="Path_50507" data-name="Path 50507" d="M3.742,352.043l-1.409,1.409L1.276,352.4a.747.747,0,0,0-1.057,1.057L1.8,355.038h0l3.171,3.171h0l1.585,1.585a.747.747,0,0,0,1.057-1.057L6.561,357.68l1.409-1.409Zm0,0" transform="translate(0 -334.502)" fill="#c3c3c3"/>
  <path id="Path_50508" data-name="Path 50508" d="M67.686,93.749l-6.342-6.342-.528-.528L51.3,96.392l-.528-.528a.747.747,0,0,0-1.057,1.057l8.456,8.456a.747.747,0,1,0,1.057-1.057l-.528-.528,9.513-9.513ZM62.4,94.806a.747.747,0,0,1-1.057,1.057l-.529-.529-.528.529a.747.747,0,0,1-1.057-1.057l.528-.528-.528-.529a.747.747,0,0,1,1.057-1.057l.529.528.528-.528A.747.747,0,0,1,62.4,93.749l-.529.529Zm0,0" transform="translate(-47.033 -82.55)" fill="#c3c3c3"/>
</svg>
